<svg width="36" height="26" viewBox="0 0 36 26" fill="none" xmlns="http://www.w3.org/2000/svg">
<path d="M33.9043 20.8971L1.34818 13.9853C1.09801 13.9321 0.929396 14.4431 1.05898 14.8501C3.13982 21.3899 8.06579 26 13.8 26H33.2215C33.3535 26 33.4693 25.8384 33.5083 25.601L34.1575 21.625C34.2127 21.2871 34.0909 20.9367 33.9043 20.8971Z" fill="#011C40"/>
<path d="M35.9053 9.56395C35.8099 9.28363 35.6545 9.0971 35.4799 9.05298L26.4799 6.79197C26.1553 6.71169 25.8499 7.14463 25.8055 7.76304C25.7612 8.38145 25.9927 8.95124 26.3209 9.03364L27.3398 9.28919C27.4886 9.32655 27.6001 9.56621 27.6001 9.84878V11.5966C27.6001 11.9323 27.4453 12.1946 27.2683 12.1584L24.8684 11.6734C24.716 11.644 24.6002 11.4009 24.6002 11.1126V6.16455C24.6002 6.0526 24.6175 5.9441 24.6506 5.85137L25.6994 2.88729C25.8194 2.54815 25.8332 2.11402 25.736 1.75116C25.6382 1.3871 25.4444 1.1497 25.2284 1.13049L12.6284 5.31593e-05C12.4262 -0.00339129 12.23 0.160617 12.1118 0.472605C12.1118 0.472605 9.7142 6.82138 9.18861 8.21863C9.12561 8.38595 9.02 8.47524 8.912 8.45259L0.663612 6.78866C0.493244 6.75474 0.325196 6.85768 0.198633 7.07123C0.0726331 7.28611 0 7.59134 0 7.91234C0 9.00105 0.0750237 10.0682 0.216634 11.1038C0.247852 11.3321 0.353462 11.4983 0.477634 11.5254L34.3759 18.7221C34.5193 18.7525 34.6537 18.5864 34.6963 18.3264L35.9738 10.5056C36.0253 10.1881 36.0001 9.84322 35.9053 9.56395ZM17.3149 3.30222L16.8469 9.47691C16.8241 9.77645 16.683 9.99014 16.5229 9.95967C15.3523 9.73697 10.9542 8.86539 10.9542 8.86539C10.7262 8.81903 10.6086 8.32726 10.7418 7.97461L12.8028 2.53808C12.8622 2.38202 12.9594 2.29273 13.0614 2.30187L17.0323 2.65797C17.2087 2.67374 17.34 2.97208 17.3149 3.30222ZM23.8195 4.12637L23.4505 5.16646C23.4175 5.25919 23.4001 5.36875 23.4001 5.4807V10.7499C23.4001 11.0856 23.2453 11.3479 23.0683 11.3117L18.3066 10.3509C18.138 10.317 18.0174 10.0252 18.0414 9.70875L18.5268 3.30685C18.5484 3.01858 18.6834 2.80834 18.8382 2.82185L23.5842 3.24803C23.8171 3.2683 23.9491 3.76006 23.8195 4.12637ZM31.2001 12.3235C31.2001 12.6592 31.0453 12.9215 30.8683 12.8853C30.8683 12.8853 29.6227 12.6208 29.0647 12.4965C28.9135 12.4638 28.8001 12.2217 28.8001 11.9357V10.3011C28.8001 9.95967 28.9597 9.69511 29.1397 9.74028L30.9397 10.1924C31.0885 10.2309 31.2001 10.4705 31.2001 10.7532V12.3235ZM34.5139 11.7559L34.2913 13.117C34.2493 13.3748 34.1155 13.541 33.9727 13.5127L32.6677 13.2494C32.5159 13.2189 32.4001 12.9758 32.4001 12.6875V11.2066C32.4001 10.8652 32.5597 10.6006 32.7397 10.6458L34.2667 11.029C34.4503 11.0754 34.5685 11.4214 34.5139 11.7559Z" fill="#011C40"/>
</svg>
